<svg xmlns="http://www.w3.org/2000/svg" viewBox="0 0 900 650"><defs><linearGradient id="g" x1="0" x2="1"><stop stop-color="#25000e"/><stop offset=".55" stop-color="#65052b"/><stop offset="1" stop-color="#2b0010"/></linearGradient></defs><rect width="900" height="650" fill="url(#g)"/><rect x="55" y="65" width="790" height="500" rx="28" fill="#160008" stroke="#e9c77b" stroke-opacity=".5"/><g fill="#f7efe5"><rect x="95" y="120" width="210" height="360" rx="14" fill="#3f0618"/><rect x="345" y="120" width="210" height="360" rx="14" fill="#4e0920"/><rect x="595" y="120" width="210" height="360" rx="14" fill="#3b0718"/></g><g fill="#e9c77b"><circle cx="150" cy="175" r="32"/><circle cx="235" cy="175" r="32"/><circle cx="400" cy="175" r="32"/><circle cx="485" cy="175" r="32"/><circle cx="650" cy="175" r="32"/><circle cx="735" cy="175" r="32"/></g><g fill="#a8144e"><rect x="120" y="250" width="70" height="150" rx="35"/><rect x="220" y="250" width="30" height="150" rx="15"/><rect x="370" y="250" width="70" height="150" rx="35"/><rect x="470" y="250" width="30" height="150" rx="15"/><rect x="620" y="250" width="70" height="150" rx="35"/><rect x="720" y="250" width="30" height="150" rx="15"/></g><text x="450" y="525" text-anchor="middle" fill="#f0d99f" font-family="Georgia" font-size="34">Papai e Mamãe · SEXSHOP</text></svg>